<?xml version="1.0" encoding="UTF-8" standalone="no"?>
<svg
   viewBox="0 0 1800 1800"
   version="1.1"
   id="svg417"
   sodipodi:docname="logosvg.svg"
   inkscape:version="1.1.2 (b8e25be833, 2022-02-05)"
   xmlns:inkscape="http://www.inkscape.org/namespaces/inkscape"
   xmlns:sodipodi="http://sodipodi.sourceforge.net/DTD/sodipodi-0.dtd"
   xmlns="http://www.w3.org/2000/svg"
   xmlns:svg="http://www.w3.org/2000/svg">
  <sodipodi:namedview
     id="namedview419"
     pagecolor="#ffffff"
     bordercolor="#666666"
     borderopacity="1.0"
     inkscape:pageshadow="2"
     inkscape:pageopacity="0.0"
     inkscape:pagecheckerboard="0"
     showgrid="false"
     inkscape:zoom="0.48833333"
     inkscape:cx="306.14334"
     inkscape:cy="900"
     inkscape:window-width="1920"
     inkscape:window-height="1130"
     inkscape:window-x="-6"
     inkscape:window-y="-6"
     inkscape:window-maximized="1"
     inkscape:current-layer="Capa_2" />
  <defs
     id="defs320">
    <style
       id="style318">.cls-1{fill:#111;}.cls-2{fill:#49ce71;}.cls-3{fill:#fff;}</style>
  </defs>
  <g
     id="Capa_2"
     data-name="Capa 2">
    <g
       id="Capa_11"
       data-name="Capa 11">
      <rect
         class="cls-1"
         width="1476.4506"
         height="1337.2014"
         id="rect322"
         x="159.72696"
         y="239.59044"
         style="fill:#161616;fill-opacity:1" />
    </g>
    <g
       id="Capa_9"
       data-name="Capa 9">
      <path
         class="cls-2"
         d="M848.6,1169.13a2.68,2.68,0,0,1-.84-.13L341,998.76l1.68-5,504.65,169.53,186.6-342.45-123.67-489,5.12-1.29,123.93,490a2.64,2.64,0,0,1-.24,1.91l-188.16,345.3A2.66,2.66,0,0,1,848.6,1169.13Z"
         id="path325" />
      <path
         class="cls-2"
         d="M748.4,1462.35l-5-1.74,102.69-295a2.74,2.74,0,0,1,.78-1.14l588-501.07,3.43,4L850.86,1168Z"
         id="path327" />
      <path
         class="cls-2"
         d="M481.12,1289.81l-5.27-.35L500,927a2.61,2.61,0,0,1,.86-1.78L703.55,741,593.27,423.59l5-1.74L709.11,740.92a2.64,2.64,0,0,1-.72,2.83L505.17,928.38Z"
         id="path329" />
      <path
         class="cls-2"
         d="M1077.41,1463.11,846.76,1168.43,501.1,929.31a2.72,2.72,0,0,1-.92-1.12L386.64,666.47a2.64,2.64,0,0,1,3-3.62L706.17,739l517.14-318.5a2.63,2.63,0,0,1,2.51-.14,2.59,2.59,0,0,1,1.49,2l123.4,865.37a2.64,2.64,0,0,1-4.81,1.84l-310.77-466L393.59,669.23,504.73,925.39,850.1,1164.32a2.7,2.7,0,0,1,.58.54l230.89,295Zm-364-722.4,324,77.91a2.64,2.64,0,0,1,1.59,1.1l304.88,457.22L1222.65,427.08Z"
         id="path331" />
      <path
         class="cls-2"
         d="M342.89,998.68l-2.08-4.85,160.75-69.12a2.61,2.61,0,0,1,1.11-.21l615.76,15,.28,0,365.44,48-.68,5.24-365.31-48-615-15Z"
         id="path333" />
      <circle
         class="cls-2"
         cx="493.44"
         cy="1048.49"
         r="14.96"
         id="circle335" />
      <circle
         class="cls-2"
         cx="502.6"
         cy="927.14"
         r="14.96"
         id="circle337" />
      <circle
         class="cls-2"
         cx="1277.86"
         cy="800.02"
         r="14.96"
         id="circle339" />
      <circle
         class="cls-2"
         cx="1301.3"
         cy="965.22"
         r="14.96"
         id="circle341" />
      <circle
         class="cls-2"
         cx="706.62"
         cy="741.79"
         r="14.96"
         id="circle343" />
      <circle
         class="cls-2"
         cx="974.59"
         cy="575.82"
         r="14.96"
         id="circle345" />
      <circle
         class="cls-2"
         cx="1118.36"
         cy="942.1"
         r="14.96"
         id="circle347" />
      <circle
         class="cls-2"
         cx="974.59"
         cy="942.1"
         r="14.96"
         id="circle349" />
      <circle
         class="cls-2"
         cx="848.6"
         cy="1166.49"
         r="14.96"
         id="circle351" />
      <circle
         class="cls-2"
         cx="1036.76"
         cy="818.63"
         r="14.96"
         id="circle353" />
      <circle
         class="cls-2"
         cx="1053.3"
         cy="1121"
         r="65.06"
         id="circle355" />
      <circle
         class="cls-2"
         cx="1166.33"
         cy="626.14"
         r="24.12"
         id="circle357" />
      <circle
         class="cls-2"
         cx="1482.05"
         cy="994.49"
         r="24.12"
         id="circle359" />
      <circle
         class="cls-2"
         cx="389.06"
         cy="665.42"
         r="33.52"
         id="circle361" />
      <circle
         class="cls-2"
         cx="1079.49"
         cy="1461.48"
         r="31.7"
         id="circle363" />
      <circle
         class="cls-2"
         cx="1130.11"
         cy="1317.05"
         r="24.12"
         id="circle365" />
      <circle
         class="cls-2"
         cx="1064.63"
         cy="1323.25"
         r="14.86"
         id="circle367" />
      <circle
         class="cls-2"
         cx="817.58"
         cy="665.42"
         r="39.29"
         id="circle369" />
      <circle
         class="cls-2"
         cx="745.9"
         cy="1461.48"
         r="39.29"
         id="circle371" />
      <circle
         class="cls-2"
         cx="541.89"
         cy="700.57"
         r="21.14"
         id="circle373" />
      <circle
         class="cls-2"
         cx="478.48"
         cy="1289.63"
         r="24.12"
         id="circle375" />
      <circle
         class="cls-2"
         cx="1217.72"
         cy="1061.73"
         r="32.74"
         id="circle377" />
      <circle
         class="cls-2"
         cx="595.77"
         cy="422.72"
         r="32.74"
         id="circle379" />
      <circle
         class="cls-2"
         cx="682.49"
         cy="1318.81"
         r="24.12"
         id="circle381" />
      <circle
         class="cls-2"
         cx="1224.7"
         cy="422.72"
         r="24.12"
         id="circle383" />
      <circle
         class="cls-2"
         cx="912.83"
         cy="331.15"
         r="41.29"
         id="circle385" />
      <circle
         class="cls-2"
         cx="1348.1"
         cy="1288.09"
         r="41.29"
         id="circle387" />
      <circle
         class="cls-2"
         cx="1436.6"
         cy="665.42"
         r="47.21"
         id="circle389" />
      <circle
         class="cls-2"
         cx="341.85"
         cy="996.25"
         r="47.21"
         id="circle391" />
      <path
         class="cls-2"
         d="M1079.23,1474.69H746.43l-280-179.92L328.22,992.05l47.36-329.41,217.94-251.5,319.31-93.76,319.31,93.76,217.94,251.5,47.36,329.41-138.25,302.72Zm-325-26.42h317.28l266.91-171.53,131.8-288.61-45.15-314L1217.25,434.3,912.83,344.91,608.4,434.3,400.63,674.08l-45.15,314,131.8,288.61Z"
         id="path393" />
      <path
         class="cls-2"
         d="M1075.35,1470.29a9.2,9.2,0,0,1-1.17-.08,8.8,8.8,0,0,1-7.61-8.06l-26-340.07L804.06,664.93,606,441.61,550.82,700.92l57.52,432.76,150,324.1-16,7.4L591.79,1139.86a8.64,8.64,0,0,1-.73-2.53l-57.9-435.6a8.84,8.84,0,0,1,.12-3l59.07-277.85a8.8,8.8,0,0,1,15.2-4L818,654.06a8.82,8.82,0,0,1,1.23,1.8L1057,1115.58a8.81,8.81,0,0,1,1,3.37l23,300.52,127.78-358.77L1159,627.14a8.77,8.77,0,0,1,.27-3.38l57-203.42,17,4.75-56.52,201.76,49.81,433.87a8.86,8.86,0,0,1-.45,4l-142.38,399.76A8.81,8.81,0,0,1,1075.35,1470.29Z"
         id="path395" />
      <path
         class="cls-2"
         d="M912.83,1351.74a8.88,8.88,0,0,1-1.15-.07l-435.95-57.18a8.8,8.8,0,0,1-7.57-7.48L379.39,669.62a8.81,8.81,0,0,1,10.52-9.88l152.37,31.92,624.39-74.27a8.77,8.77,0,0,1,2.4,0l269.84,42.23-2.72,17.41L1167.55,635l-624.62,74.3a8.81,8.81,0,0,1-2.85-.13L398.61,679.56l86,598.33,428.19,56.16,430-56.39,124.94-273.59-416.06,124-5-16.88,434.64-129.53a8.81,8.81,0,0,1,10.53,12.1l-135,295.66a8.85,8.85,0,0,1-6.87,5.08l-436,57.18A8.72,8.72,0,0,1,912.83,1351.74Z"
         id="path397" />
      <path
         class="cls-3"
         d="M289.73,1138.54l-4.37,24.72q24.72-29.28,59.52-28.52,28.53.57,42.51,21.2T397.57,1215l-21.68,129.52H313.12L335,1214.46a68.16,68.16,0,0,0,.38-12.18q-1.33-18.09-21.31-18.09-16.54-.39-30.24,14.66l-25.67,145.67H195.58l25.77-148.26a69.63,69.63,0,0,1,68.38-57.72Z"
         id="path399" />
      <path
         class="cls-3"
         d="M509.8,1134.93q27.57.38,47.73,13.78t29.58,37.38q9.4,24,6.75,53.25l-.38,4.19q-5.33,47.35-35.19,76.45t-73.79,28.34q-27.39-.37-47.36-13.6t-29.57-37q-9.61-23.77-6.94-52.87,4.74-50.59,34.71-80.64T509.8,1134.93Zm-46.6,110-.57,11.2q-2.67,42.35,25.86,43.1,36.9,1.14,42.8-59.81l.76-17.28q.38-17.09-6.37-27.25t-19.88-10.53q-17.31-.57-28.43,14.14T463.2,1245Z"
         id="path401" />
      <path
         class="cls-3"
         d="M601.35,1241.24q5.89-48.69,29.67-78t62-28.33q26.25.75,43.55,22.06l20-104.61h62.77l-50.59,292.14H713l2.66-22.26q-23,27-51.16,26.25-29.67-.37-46.5-22t-18-57.91a177,177,0,0,1,.76-23.39Zm62.38,4.38a149.42,149.42,0,0,0-1.33,21.3q0,31.57,21.3,32.14,18.45.57,32.9-17.69l14.08-78.93q-6.28-17.49-25.11-18.06-17.49-.39-28.24,15.12T663.73,1245.62Z"
         id="path403" />
      <path
         class="cls-3"
         d="M883.86,1348.32q-27.57-.19-49.16-13a82.06,82.06,0,0,1-32.62-35.75q-11-22.92-8.75-50.5l.57-5.32q5.13-50.79,35.28-80.36t73.89-28.43q26.43.38,45.27,13.43t27.57,36q8.75,23,5.71,51.53L978,1262H855.52q.39,16.17,9.13,26.25t25.49,10.65q27.2.77,48.88-20.92l26.24,34.71q-11.6,16.5-32.42,25.89a113.85,113.85,0,0,1-45.55,9.77Zm15.22-163.94A32.17,32.17,0,0,0,876,1192.7q-9.79,8.71-17,29.14h62.57l1.14-5.49a41.63,41.63,0,0,0,.38-12.48Q919.8,1184.94,899.08,1184.38Z"
         id="path405" />
      <path
         class="cls-3"
         d="M988.85,1241.24q3.61-31,17-56.1t33.57-38q20.15-12.84,45.64-12.45,31,.75,46.79,22.25l6.66-18.45,57.81.19-33.66,197.8q-5.7,41.84-36.71,66t-77.22,23a110.39,110.39,0,0,1-39.75-8.18,85.73,85.73,0,0,1-32.9-23.58h0c13.55-16.86,36-24.21,56.68-17.88a58.77,58.77,0,0,0,16,2.47q41.65.77,52.88-44.31l1.52-6.28q-21.3,20.92-47,20.54-19.79-.19-34.8-10t-23.59-28.25a109.93,109.93,0,0,1-9.7-41.08A180.07,180.07,0,0,1,988.85,1241.24Zm61.82,20.35q0,17.51,6.27,27.2t18.26,10.08q17.68.77,32.14-13.69l16.17-87.3q-7.6-13.32-25.49-13.69-18.26-.39-30.62,15.5t-15.59,41.74Q1050.67,1253.42,1050.67,1261.59Z"
         id="path407" />
      <path
         class="cls-3"
         d="M1319.59,1196.35a134,134,0,0,0-16.84-1.51q-28.15-.77-43,19.4l-12.23,68.67a74.71,74.71,0,0,1-73.55,61.61h0l35.76-205.79,58.39-.19-4.76,27q20.16-31.2,47.55-31.19a89.37,89.37,0,0,1,19.4,2.66Z"
         id="path409" />
      <path
         class="cls-3"
         d="M1368.19,1344.52h-62.77l35.76-205.79h62.76Zm-21.5-257.71a29.06,29.06,0,0,1,9.8-23.21,35.17,35.17,0,0,1,24.63-9.32q14.64,0,24.44,8.37t10.17,21.88q.39,14.07-9.7,23.29t-24.72,9.23q-14.26,0-24.25-8.28T1346.69,1086.81Z"
         id="path411" />
      <path
         class="cls-3"
         d="M1394.32,1241.24q5.9-48.69,29.67-78t62-28.33q26.25.75,43.56,22.06l20-104.61h62.76l-50.59,292.14H1506l2.67-22.26q-23,27-51.16,26.25-29.67-.37-46.51-22t-18-57.91a178.77,178.77,0,0,1,.76-23.39Zm62.38,4.38a150.9,150.9,0,0,0-1.33,21.3q0,31.57,21.3,32.14,18.45.57,32.91-17.69l14.07-78.93q-6.27-17.49-25.1-18.06-17.5-.39-28.25,15.12T1456.7,1245.62Z"
         id="path413" />
    </g>
    <path
       style="fill:#161616;fill-opacity:1;stroke-width:2.04778"
       d="M 160.75085,908.19113 V 239.59044 H 897.95222 1635.1536 V 908.19113 1576.7918 H 897.95222 160.75085 Z m 605.11946,588.13657 c 4.50512,-2.5459 10.41888,-8.0598 13.14172,-12.2531 l 4.95059,-7.6241 h 132.89492 132.89496 l 4.9796,5.918 c 6.8853,8.1827 19.9414,13.1146 30.1515,11.3896 14.9886,-2.5323 29.996,-21.6006 27.6585,-35.1426 -0.4408,-2.5539 24.5473,-19.6266 95.649,-65.3506 l 96.2458,-61.8934 0.6355,7.0105 0.6356,7.0105 h 31.479 c 34.879,0 32.0307,1.2172 34.7406,-14.8461 0.7124,-4.2233 3.6081,-9.9915 6.4348,-12.8182 10.8021,-10.8021 14.3769,-32.0994 7.9641,-47.4474 -2.7533,-6.5895 -2.7566,-9.1783 -0.03,-23.551 1.6847,-8.8812 4.4765,-18.6515 6.2039,-21.7117 2.9653,-5.2535 3.0528,-4.7637 1.566,8.7703 -6.1662,56.1287 5.1665,91.9572 34.2614,108.3178 10.1271,5.6946 13.018,6.3344 28.6689,6.3456 19.5339,0.014 30.2998,-3.9267 42.7232,-15.6378 l 6.8869,-6.4922 -0.7583,9.5354 -0.7584,9.5353 h 29.1956 c 20.4976,0 29.1956,-0.6959 29.1956,-2.3357 0,-1.2846 11.058,-66.159 24.5734,-144.1652 13.5154,-78.0063 24.5734,-143.3034 24.5734,-145.1047 0,-2.86 -4.0046,-3.275 -31.6026,-3.275 -28.3246,0 -31.7137,0.3718 -32.6735,3.5837 -0.589,1.971 -4.8515,23.8566 -9.4723,48.6348 -4.6208,24.7781 -8.7843,46.2154 -9.2523,47.6384 -0.5683,1.728 -3.9564,0.2167 -10.2022,-4.5508 -12.0413,-9.1914 -22.887,-12.0104 -41.9912,-10.9145 -19.3049,1.1075 -35.0892,7.9683 -47.9728,20.8519 -5.1285,5.1285 -9.3246,9.0755 -9.3246,8.7712 0,-0.3043 14.6895,-32.763 32.6432,-72.1304 29.4187,-64.5068 33.2859,-71.8969 39.15,-74.8147 9.7613,-4.8569 14.1157,-11.7461 14.1681,-22.41595 0.041,-8.32937 -3.6202,-17.13893 -8.5365,-20.54095 -0.9088,-0.62883 -10.2231,-60.52644 -20.6987,-133.1058 l -19.0463,-131.96249 8.1736,-6.14334 c 17.7103,-13.31109 23.5588,-39.72068 13.2378,-59.77634 -9.9685,-19.37081 -31.6949,-29.57324 -53.1694,-24.96776 -8.3831,1.79783 -10.9723,1.69185 -13.0372,-0.53357 -1.4172,-1.52732 -38.4888,-44.26485 -82.3813,-94.97228 -73.6741,-85.11296 -79.8973,-92.88615 -81.0108,-101.18791 -1.5346,-11.44074 -7.038,-18.79337 -16.8669,-22.53429 -6.8074,-2.5909 -8.8101,-2.57116 -16.4098,0.16167 l -8.6562,3.11274 -125.8826,-36.90116 -125.88256,-36.90116 -2.35479,-8.80432 c -3.06332,-11.45336 -14.63162,-24.09324 -26.03726,-28.4491 -23.06344,-8.80801 -51.65848,6.50945 -55.41057,29.68168 l -1.1865,7.32777 -123.82078,36.35731 -123.82075,36.3573 -7.39517,-5.64058 c -6.24868,-4.76611 -9.38083,-5.64058 -20.20307,-5.64058 -13.84095,0 -20.16092,3.14419 -28.34002,14.09922 -3.28987,4.40642 -4.16519,8.44777 -3.96436,18.3035 0.1417,6.95666 0.60249,14.14503 1.02389,15.97415 0.47844,2.07684 -30.18471,39.08527 -81.65646,98.554 l -82.42262,95.22829 -8.70366,-0.90463 c -11.09951,-1.15366 -25.23487,5.76727 -31.72468,15.53294 -8.05616,12.12268 -5.80514,32.28759 4.85154,43.46056 l 5.11945,5.36748 -18.15357,125.69054 -18.15358,125.69054 -10.1337,4.79156 c -13.51799,6.39178 -18.94587,11.63482 -24.71918,23.87738 -6.06528,12.8617 -6.28397,27.39598 -0.60081,39.93178 7.88083,17.3832 21.0069,26.4244 41.36312,28.4907 l 11.84236,1.2021 32.39177,70.8749 c 29.4403,64.4169 32.15886,71.3207 29.83565,75.7679 -5.29841,10.1425 -11.19285,31.6164 -13.27268,48.3535 -5.59986,45.0639 12.49397,84.8814 45.65494,100.4689 20.92008,9.8336 52.72927,10.925 76.35856,2.62 l 11.43748,-4.0199 86.39787,55.5088 86.39789,55.5088 -0.73771,7.7358 c -1.45164,15.2218 9.41991,33.9639 23.17863,39.959 10.02184,4.3668 27.45035,3.4965 36.89814,-1.8425 z M 259.09992,1344.8805 c 0.0306,-0.2815 5.84305,-33.1666 12.91664,-73.0779 l 12.86108,-72.566 7.54103,-6.1034 c 5.72895,-4.6368 10.23098,-6.3266 18.73528,-7.0318 10.32774,-0.8565 11.67665,-0.4459 17.42629,5.3037 3.78657,3.7866 6.23205,8.3466 6.23205,11.6209 0,2.9638 -5.06826,35.6977 -11.2628,72.7419 -6.19454,37.0443 -11.2628,67.8643 -11.2628,68.4889 0,0.6246 14.53523,1.1357 32.30052,1.1357 h 32.30052 l 10.91518,-66.041 c 6.85256,-41.4606 10.88814,-72.0081 10.84256,-82.0731 -0.10219,-22.5557 -5.0306,-36.9253 -16.66096,-48.5774 -11.69455,-11.7163 -22.68224,-15.1181 -44.60355,-13.809 -17.00384,1.0154 -27.77787,5.2233 -41.97098,16.392 l -7.66169,6.029 1.32857,-9.6929 1.32857,-9.693 -11.3038,1.1666 c -20.87147,2.1542 -42.60524,17.7791 -52.63481,37.8405 -2.96597,5.9326 -8.53594,32.7924 -17.6203,84.9693 -7.30586,41.962 -13.28338,77.9133 -13.28338,79.8918 0,3.2764 2.8309,3.5972 31.74061,3.5972 17.45734,0 31.76562,-0.2304 31.79617,-0.512 z"
       id="path1632" />
    <path
       style="fill:#161616;fill-opacity:1;stroke-width:2.04778"
       d="m 1467.6794,1295.0975 c -7.82,-5.4773 -10.684,-13.8011 -10.6673,-31.0026 0.033,-33.6202 9.0705,-62.7162 22.4379,-72.2346 13.1454,-9.3604 32.2727,-7.0187 40.0872,4.9078 2.9482,4.4995 2.6523,7.8893 -3.8529,44.1269 -7.7708,43.2881 -9.1538,46.2611 -24.8993,53.5281 -10.0788,4.6517 -17.1333,4.8576 -23.1056,0.6744 z"
       id="path1782" />
  </g>
</svg>
